<svg width="40" height="40" viewBox="0 0 40 40" fill="none" xmlns="http://www.w3.org/2000/svg">
<path d="M12.0126 9.42981L12.1292 9.53689L19.9992 17.4073L27.8708 9.53689L27.9874 9.42981C28.7076 8.82302 29.7849 8.85871 30.4631 9.53689C31.179 10.2527 31.179 11.4134 30.4631 12.1292L22.592 19.9992L30.4631 27.8708C31.179 28.5866 31.179 29.7473 30.4631 30.4631C29.7849 31.1413 28.7076 31.177 27.9874 30.5702L27.8708 30.4631L19.9992 22.592L12.1292 30.4631L12.0126 30.5702C11.2924 31.177 10.2151 31.1413 9.53689 30.4631C8.82104 29.7473 8.82104 28.5866 9.53689 27.8708L17.4073 19.9992L9.53689 12.1292C8.82104 11.4134 8.82104 10.2527 9.53689 9.53689C10.2151 8.85871 11.2924 8.82302 12.0126 9.42981Z" fill="black"/>
</svg>
